PathFileType	4	(X/Y/Z)	9_coords_data.trc
DataRate	CameraRate	NumFrames	NumMarkers	Units	OrigDataRate	OrigDataStartFrame	OrigNumFrames
30.0	30.0	4	21	m	30.0	10	47
Frame#	Time	THUMB_TIP	THUMB_IP	THUMB_MCP	THUMB_CMC	INDEX_TIP	INDEX_DIP	INDEX_PIP	INDEX_MCP	MIDDLE_TIP	MIDDLE_DIP	MIDDLE_PIP	MIDDLE_MCP	RING_TIP	RING_DIP	RING_PIP	RING_MCP	PINKY_TIP	PINKY_DIP	PINKY_PIP	PINKY_MCP	WRIST
X1	Y1	Z1	X2	Y2	Z2	X3	Y3	Z3	X4	Y4	Z4	X5	Y5	Z5	X6	Y6	Z6	X7	Y7	Z7	X8	Y8	Z8	X9	Y9	Z9	X10	Y10	Z10	X11	Y11	Z11	X12	Y12	Z12	X13	Y13	Z13	X14	Y14	Z14	X15	Y15	Z15	X16	Y16	Z16	X17	Y17	Z17	X18	Y18	Z18	X19	Y19	Z19	X20	Y20	Z20	X21	Y21	Z21
8	0.2999999999999987	0.4807936273226458	-0.01938773618811407	-0.16864971813889762	0.48606996067781383	-0.0185459616457474	-0.14630130159666876	0.4831018875859678	-0.025906050568675232	-0.1162041317435405	0.4830914516816921	-0.024604080687781527	-0.071614954070913	0.5262354590392435	-0.016230253642842807	-0.09944024226220094	0.5357839276985601	-0.005607629854642249	-0.11057516974810777	0.5365564909681878	0.013006285629772796	-0.12745519135157402	0.4943368427934035	0.012210207858496358	-0.12193217929477751	0.513750272358456	-0.015484444623856675	-0.08481695502028797	0.5295849556749421	-0.007637814889676853	-0.08877842016355031	0.5410807111661164	0.014231125952334556	-0.10423825787730867	0.498218535218033	0.02676114680281183	-0.10564551459949667	0.510688394800912	-0.004231985346977329	-0.07534711048940945	0.5273168494409989	0.002599807640059848	-0.07669659219170977	0.5400472166657672	0.0223799979878877	-0.0848734986438009	0.5024079153288308	0.03704839293303708	-0.0865593274015436	0.5142331064960746	-0.0037850195272643994	-0.06337120905560634	0.529644156125533	0.003516485285759763	-0.06189216315241175	0.5368855582536701	0.023197423773568926	-0.0629094017958387	0.5036392128368744	0.037180692448267494	-0.06308874671020004	0.4622830810018609	-0.023011742144276925	-0.051989820119430985
9	0.33333333333333187	0.4809762841587767	-0.019311989278531283	-0.16864104483286624	0.4861999792190471	-0.018484693780136174	-0.14627972572876058	0.4831649758624066	-0.025873081669083975	-0.11619616744474726	0.4830993027896284	-0.024614249148763312	-0.07160579821849733	0.5262261435389459	-0.01623927224495947	-0.09945223040543383	0.5358033859231106	-0.005618779724216205	-0.11056445641698487	0.5365557205226084	0.013030431821722144	-0.12740639022415945	0.49433010325640697	0.012217268540414272	-0.12193171160654026	0.513731919672457	-0.015470536492354636	-0.08482368158478937	0.5295733157324534	-0.007635253387939689	-0.08878076504916099	0.5410698626555484	0.014254453056104954	-0.10421059689006673	0.4982047529484676	0.026771317504076797	-0.10564530772889003	0.5106520635697722	-0.004236775550293448	-0.07532026484381482	0.5272751548328096	0.0026076099401680652	-0.07667201338503693	0.5400150188011832	0.02238478254251275	-0.08484142517074089	0.5023826594975704	0.03706777166841346	-0.0865549588215565	0.5142235325463563	-0.0037437900841766902	-0.06334673327622398	0.5296328602659571	0.003557012497512946	-0.061846433008566404	0.5368556011833556	0.02324355950951784	-0.06288753789485779	0.503602084669121	0.03720973244399639	-0.06306948294638026	0.46228308100186094	-0.023011742144276925	-0.051989820119430985
10	0.3666666666666651	0.4809801433809016	-0.0192850309825352	-0.16866917620914712	0.4862008012746688	-0.018452863849806822	-0.14630732858826723	0.4831598525138657	-0.025851333204265137	-0.1162268485082334	0.48307159533480803	-0.02460017837287176	-0.07163630217542627	0.5261608633939361	-0.016325100295778383	-0.0994476983666418	0.5356872053688511	-0.005671404134779401	-0.11057188672742058	0.5365032463442208	0.012999812554517653	-0.12738645117220548	0.49426977033099095	0.012192313327828774	-0.12197188352198174	0.5136264076350735	-0.015487003764275475	-0.0848657890783574	0.529478619394109	-0.007672375612475135	-0.08882040273784297	0.5410074361249042	0.014214308779550655	-0.10423043132677146	0.49814906161957107	0.026749896197605816	-0.1057024040999257	0.5105553803511258	-0.004252944316811003	-0.0753707435997516	0.5271826793035529	0.0025807517337682606	-0.07672482182308837	0.5399494075656492	0.02234090572473668	-0.08489347793869295	0.5023317741191718	0.03705898867858126	-0.08662913978658349	0.5141645569938704	-0.0037168717483547775	-0.06337412964061573	0.529584676247113	0.0035671080548489442	-0.06190322500662515	0.5368176920680106	0.02324833533890902	-0.0629731753455749	0.5035670269466458	0.03722153349830204	-0.0631358196974503	0.46228308100186094	-0.023011742144276925	-0.051989820119430985
11	0.39999999999999825	0.4805421420582544	-0.019375549265992165	-0.1686887106139784	0.485886629103692	-0.01850673324119989	-0.1463575302390807	0.4829976797228714	-0.025875512533328093	-0.11625478845001846	0.4830435721198433	-0.024620017643563474	-0.07166430037834925	0.5257632046276649	-0.016392837572138053	-0.09953830494141125	0.5353638550399974	-0.005786631197146064	-0.11064397457413777	0.5363332997909553	0.012898385086868469	-0.12743504887987978	0.49409205361593017	0.012153395913984566	-0.12207238100714979	0.5132666578508212	-0.01541897567170547	-0.08499079666099785	0.5291821231626783	-0.007716766241320783	-0.08891175748681157	0.5408462293077231	0.014103609965619657	-0.10431400927103829	0.4980156994755654	0.026731382061135345	-0.10580833426928105	0.5102710897561124	-0.004144339383439943	-0.07547140926299956	0.5269465422876811	0.0025746048150974143	-0.07680747502647767	0.5398087595354402	0.022263836188972763	-0.08499756137385284	0.5022264451326186	0.037072599747456136	-0.08672701215268352	0.51390604835167	-0.0036244748928936366	-0.0634530688298478	0.5293645102069313	0.00357446257028482	-0.061966039418345775	0.5367348169472284	0.023201394820412946	-0.06309481220452351	0.5035131042833222	0.03724371498959633	-0.06321524036983195	0.46228308100186083	-0.023011742144276925	-0.051989820119430985
